<svg width="100" height="97" viewBox="0 0 100 97" fill="none" xmlns="http://www.w3.org/2000/svg">
<g clip-path="url(#clip0_8_2111)">
<path d="M34.1699 12.7099C32.8699 12.4599 31.5499 12.2699 30.2499 11.9699C29.3199 11.7599 28.3999 11.4799 27.5399 11.0599C25.9399 10.2799 25.0499 8.92995 24.5199 7.28995C24.0399 5.79995 23.7999 4.25995 23.5699 2.70995C23.5399 2.49995 23.4999 2.27995 23.3799 2.06995C23.3199 2.43995 23.2699 2.80995 23.2099 3.17995C22.9799 4.60995 22.7299 6.03995 22.2799 7.42995C21.5799 9.63995 20.0899 10.9899 17.8899 11.6399C16.4899 12.0499 15.0599 12.2999 13.6299 12.5199C13.2999 12.5699 12.9699 12.6199 12.6399 12.7099C13.4299 12.8299 14.2099 12.9499 14.9999 13.0899C16.2799 13.3099 17.5399 13.5799 18.7499 14.0599C20.4199 14.7299 21.5399 15.9299 22.1499 17.6199C22.6099 18.8799 22.8599 20.1799 23.0899 21.4999C23.1899 22.0999 23.2799 22.7099 23.4599 23.3199C23.5599 22.6699 23.6599 22.0199 23.7699 21.3699C23.9899 20.0899 24.2499 18.8299 24.6999 17.5999C25.3899 15.6799 26.7599 14.4799 28.6599 13.8499C30.1399 13.3599 31.6599 13.1099 33.1999 12.8799C33.5199 12.8299 33.8399 12.7799 34.1599 12.7299L34.1699 12.7099Z" fill="white"/>
<path d="M10.04 4.97999C8.79 4.57999 7.41 4.56999 6.4 3.58999C5.4 2.61999 5.37 1.24999 5.07 -0.0100098C5.03 -0.0100098 4.99 -0.0100098 4.94 -0.0100098C4.86 0.40999 4.78 0.81999 4.7 1.23999C4.55 1.95999 4.36 2.66999 3.9 3.26999C3.3 4.05999 2.42 4.35999 1.5 4.56999C1 4.67999 0.5 4.77999 0 4.96999C0.53 5.07999 1.06 5.19999 1.6 5.29999C3.44 5.61999 4.4 6.77999 4.7 8.55999C4.77 8.98999 4.86 9.41999 4.94 9.88999C5.2 9.75999 5.15 9.54999 5.18 9.36999C5.3 8.67999 5.44 7.98999 5.69 7.32999C6.14 6.17999 7.06 5.62999 8.19 5.34999C8.8 5.19999 9.42 5.08999 10.03 4.96999L10.04 4.97999Z" fill="white"/>
<path d="M14.1601 18.97C13.4901 21.59 13.4201 21.67 10.8501 22.44C12.9401 22.6 13.9501 23.77 14.1201 25.83C14.3201 23.83 15.2301 22.58 17.4101 22.42C15.2801 22.19 14.2701 21.01 14.1601 18.97Z" fill="white"/>
<path d="M9.4101 29.83C8.7401 32.45 8.6701 32.53 6.1001 33.3C8.1901 33.46 9.2001 34.63 9.3701 36.69C9.5701 34.69 10.4801 33.44 12.6601 33.28C10.5301 33.05 9.5201 31.87 9.4101 29.83Z" fill="white"/>
<path d="M60.5699 96.0901C60.1999 96.0701 59.9199 95.7601 59.9399 95.3901C59.9599 95.0201 60.2799 94.7401 60.6399 94.7601C61.0099 94.7801 61.2899 95.0901 61.2699 95.4601C61.2499 95.8201 60.9599 96.0901 60.6099 96.0901H60.5699ZM63.8999 95.0001C63.7499 94.6601 63.9099 94.2701 64.2499 94.1301C64.5899 93.9801 64.9799 94.1301 65.1199 94.4801C65.2699 94.8201 65.1199 95.2101 64.7699 95.3501C64.6899 95.3901 64.5999 95.4101 64.5099 95.4101C64.2499 95.4101 63.9999 95.2601 63.8999 95.0001ZM56.4799 94.9001C56.1499 94.7201 56.0399 94.3101 56.2199 93.9901C56.3999 93.6701 56.8099 93.5601 57.1299 93.7401C57.4499 93.9201 57.5599 94.3201 57.3799 94.6401C57.2599 94.8601 57.0299 94.9801 56.7999 94.9801C56.6899 94.9801 56.5799 94.9601 56.4799 94.9001ZM67.4299 93.1301C67.2399 92.8201 67.3499 92.4101 67.6699 92.2201C67.9899 92.0401 68.3899 92.1501 68.5799 92.4701C68.7599 92.7901 68.6499 93.1901 68.3399 93.3801C68.2299 93.4401 68.1199 93.4701 67.9999 93.4701C67.7699 93.4701 67.5499 93.3501 67.4299 93.1301ZM53.0099 92.9001C52.6899 92.7101 52.5799 92.3001 52.7599 91.9901C52.9499 91.6701 53.3499 91.5601 53.6699 91.7401C53.9899 91.9301 54.0999 92.3301 53.9199 92.6501C53.7899 92.8701 53.5699 92.9901 53.3399 92.9901C53.2199 92.9901 53.1099 92.9601 53.0099 92.9001ZM70.8899 91.1301C70.6999 90.8201 70.8099 90.4101 71.1299 90.2301C71.4499 90.0401 71.8599 90.1501 72.0399 90.4701C72.2199 90.7901 72.1199 91.2001 71.7999 91.3801C71.6899 91.4401 71.5799 91.4701 71.4599 91.4701C71.2299 91.4701 71.0099 91.3501 70.8899 91.1301ZM49.5399 90.9001C49.2299 90.7101 49.1199 90.3101 49.2999 89.9901C49.4799 89.6701 49.8899 89.5601 50.2099 89.7401C50.5299 89.9301 50.6399 90.3401 50.4499 90.6501C50.3299 90.8701 50.1099 90.9901 49.8799 90.9901C49.7599 90.9901 49.6499 90.9601 49.5399 90.9001ZM74.3499 89.1401C74.1699 88.8201 74.2699 88.4101 74.5899 88.2301C74.9099 88.0401 75.3199 88.1501 75.4999 88.4701C75.6899 88.7901 75.5799 89.2001 75.2599 89.3801C75.1499 89.4401 75.0399 89.4701 74.9299 89.4701C74.6999 89.4701 74.4699 89.3501 74.3499 89.1401ZM46.0799 88.9001C45.7599 88.7201 45.6499 88.3101 45.8399 87.9901C46.0199 87.6701 46.4299 87.5601 46.7499 87.7501C47.0699 87.9301 47.1799 88.3401 46.9899 88.6601C46.8699 88.8701 46.6399 88.9901 46.4099 88.9901C46.2999 88.9901 46.1899 88.9601 46.0799 88.9001ZM77.8099 87.1401C77.6299 86.8201 77.7399 86.4101 78.0599 86.2301C78.3699 86.0401 78.7799 86.1501 78.9599 86.4701C79.1499 86.7901 79.0399 87.2001 78.7199 87.3801C78.6199 87.4401 78.4999 87.4701 78.3899 87.4701C78.1599 87.4701 77.9399 87.3501 77.8099 87.1401ZM42.6199 86.9001C42.2999 86.7201 42.1899 86.3101 42.3799 85.9901C42.5599 85.6701 42.9699 85.5601 43.2899 85.7501C43.5999 85.9301 43.7099 86.3401 43.5299 86.6601C43.4099 86.8701 43.1799 86.9901 42.9499 86.9901C42.8399 86.9901 42.7199 86.9601 42.6199 86.9001ZM81.2699 85.1401C81.0899 84.8201 81.1999 84.4101 81.5199 84.2301C81.8399 84.0401 82.2399 84.1501 82.4299 84.4701C82.6099 84.7901 82.4999 85.2001 82.1799 85.3801C82.0799 85.4401 81.9599 85.4701 81.8499 85.4701C81.6199 85.4701 81.3999 85.3501 81.2699 85.1401ZM39.1599 84.9001C38.8399 84.7201 38.7299 84.3101 38.9099 83.9901C39.0999 83.6701 39.4999 83.5601 39.8199 83.7501C40.1399 83.9301 40.2499 84.3401 40.0699 84.6601C39.9399 84.8701 39.7199 84.9901 39.4899 84.9901C39.3799 84.9901 39.2599 84.9601 39.1599 84.9001ZM84.7399 83.1401C84.5499 82.8201 84.6599 82.4101 84.9799 82.2301C85.2999 82.0501 85.7099 82.1501 85.8899 82.4701C86.0699 82.7901 85.9599 83.2001 85.6499 83.3801C85.5399 83.4401 85.4299 83.4701 85.3099 83.4701C85.0799 83.4701 84.8599 83.3501 84.7399 83.1401ZM35.6999 82.9001C35.3799 82.7201 35.2699 82.3101 35.4499 81.9901C35.6399 81.6701 36.0399 81.5601 36.3599 81.7501C36.6799 81.9301 36.7899 82.3401 36.6099 82.6601C36.4799 82.8701 36.2599 82.9901 36.0299 82.9901C35.9099 82.9901 35.7999 82.9601 35.6999 82.9001ZM88.1999 81.1401C88.0099 80.8201 88.1199 80.4201 88.4399 80.2301C88.7599 80.0501 89.1699 80.1601 89.3499 80.4701C89.5299 80.7901 89.4299 81.2001 89.1099 81.3801C88.9999 81.4401 88.8899 81.4701 88.7699 81.4701C88.5399 81.4701 88.3199 81.3501 88.1999 81.1401ZM32.2299 80.9001C31.9199 80.7201 31.8099 80.3101 31.9899 79.9901C32.1699 79.6701 32.5799 79.5701 32.8999 79.7501C33.2199 79.9301 33.3299 80.3401 33.1399 80.6601C33.0199 80.8701 32.7999 80.9901 32.5699 80.9901C32.4499 80.9901 32.3399 80.9701 32.2299 80.9001ZM91.6599 79.1401C91.4799 78.8201 91.5799 78.4201 91.8999 78.2301C92.2199 78.0501 92.6299 78.1601 92.8099 78.4801C92.9999 78.7901 92.8899 79.2001 92.5699 79.3901C92.4599 79.4501 92.3499 79.4801 92.2399 79.4801C92.0099 79.4801 91.7799 79.3601 91.6599 79.1401ZM28.7699 78.9101C28.4499 78.7201 28.3399 78.3101 28.5299 78.0001C28.7099 77.6801 29.1199 77.5701 29.4399 77.7501C29.7599 77.9401 29.8699 78.3401 29.6799 78.6601C29.5599 78.8801 29.3299 78.9901 29.0999 78.9901C28.9899 78.9901 28.8799 78.9701 28.7699 78.9101ZM95.1099 77.1101C94.8599 76.8301 94.8899 76.4101 95.1699 76.1701C95.4499 75.9301 95.8699 75.9601 96.1099 76.2401C96.3499 76.5201 96.3199 76.9401 96.0499 77.1801C95.9199 77.2901 95.7599 77.3401 95.6099 77.3401C95.4199 77.3401 95.2399 77.2601 95.1099 77.1101ZM25.3899 76.4601C25.1399 76.1901 25.1499 75.7701 25.4299 75.5201C25.6899 75.2701 26.1199 75.2801 26.3699 75.5501C26.6199 75.8201 26.5999 76.2501 26.3299 76.5001C26.1999 76.6101 26.0399 76.6701 25.8799 76.6701C25.6999 76.6701 25.5199 76.6001 25.3899 76.4601ZM97.6699 74.0801C97.3299 73.9401 97.1799 73.5501 97.3199 73.2101C97.4599 72.8701 97.8499 72.7101 98.1899 72.8501C98.5299 72.9901 98.6899 73.3801 98.5499 73.7201C98.4399 73.9801 98.1899 74.1301 97.9299 74.1301C97.8399 74.1301 97.7599 74.1101 97.6699 74.0801ZM23.2799 72.7501C23.1699 72.4001 23.3799 72.0301 23.7299 71.9201C24.0799 71.8201 24.4499 72.0201 24.5599 72.3701C24.6599 72.7201 24.4599 73.0901 24.1099 73.2001C24.0499 73.2201 23.9799 73.2301 23.9199 73.2301C23.6299 73.2301 23.3599 73.0401 23.2799 72.7501ZM22.8899 70.0701C22.8899 69.7001 23.1899 69.4001 23.5599 69.4001C23.9199 69.4001 24.2199 69.7001 24.2199 70.0701C24.2199 70.4301 23.9199 70.7301 23.5599 70.7301C23.1899 70.7301 22.8899 70.4301 22.8899 70.0701ZM97.9499 69.5601C97.9499 69.1901 98.2499 68.8901 98.6199 68.8901C98.9899 68.8901 99.2799 69.1901 99.2799 69.5601C99.2799 69.9301 98.9899 70.2301 98.6199 70.2301C98.2499 70.2301 97.9499 69.9301 97.9499 69.5601ZM22.8899 66.0701C22.8899 65.7001 23.1899 65.4001 23.5599 65.4001C23.9199 65.4001 24.2199 65.7001 24.2199 66.0701C24.2199 66.4401 23.9199 66.7301 23.5599 66.7301C23.1899 66.7301 22.8899 66.4401 22.8899 66.0701ZM97.9499 65.5601C97.9499 65.1901 98.2499 64.9001 98.6199 64.9001C98.9899 64.9001 99.2799 65.1901 99.2799 65.5601C99.2799 65.9301 98.9899 66.2301 98.6199 66.2301C98.2499 66.2301 97.9499 65.9301 97.9499 65.5601ZM22.8899 62.0701C22.8899 61.7001 23.1899 61.4001 23.5599 61.4001C23.9199 61.4001 24.2199 61.7001 24.2199 62.0701C24.2199 62.4401 23.9199 62.7401 23.5599 62.7401C23.1899 62.7401 22.8899 62.4401 22.8899 62.0701ZM97.9499 61.5701C97.9499 61.2001 98.2499 60.9001 98.6199 60.9001C98.9899 60.9001 99.2799 61.2001 99.2799 61.5701C99.2799 61.9301 98.9899 62.2301 98.6199 62.2301C98.2499 62.2301 97.9499 61.9301 97.9499 61.5701ZM22.8899 58.0701C22.8899 57.7001 23.1899 57.4101 23.5599 57.4101C23.9199 57.4101 24.2199 57.7001 24.2199 58.0701C24.2199 58.4401 23.9199 58.7401 23.5599 58.7401C23.1899 58.7401 22.8899 58.4401 22.8899 58.0701ZM97.9499 57.5701C97.9499 57.2001 98.2499 56.9001 98.6199 56.9001C98.9899 56.9001 99.2799 57.2001 99.2799 57.5701C99.2799 57.9401 98.9899 58.2301 98.6199 58.2301C98.2499 58.2301 97.9499 57.9401 97.9499 57.5701ZM22.8899 54.0701C22.8899 53.7101 23.1899 53.4101 23.5599 53.4101C23.9199 53.4101 24.2199 53.7101 24.2199 54.0701C24.2199 54.4401 23.9199 54.7401 23.5599 54.7401C23.1899 54.7401 22.8899 54.4401 22.8899 54.0701ZM97.9499 53.5701C97.9499 53.2001 98.2499 52.9001 98.6199 52.9001C98.9899 52.9001 99.2799 53.2001 99.2799 53.5701C99.2799 53.9401 98.9899 54.2401 98.6199 54.2401C98.2499 54.2401 97.9499 53.9401 97.9499 53.5701ZM22.8899 50.0801C22.8899 49.7101 23.1899 49.4101 23.5599 49.4101C23.9199 49.4101 24.2199 49.7101 24.2199 50.0801C24.2199 50.4501 23.9199 50.7401 23.5599 50.7401C23.1899 50.7401 22.8899 50.4501 22.8899 50.0801ZM97.9499 49.5701C97.9499 49.2001 98.2499 48.9101 98.6199 48.9101C98.9899 48.9101 99.2799 49.2001 99.2799 49.5701C99.2799 49.9401 98.9899 50.2401 98.6199 50.2401C98.2499 50.2401 97.9499 49.9401 97.9499 49.5701ZM22.8899 46.0801C22.8899 45.7101 23.1899 45.4101 23.5599 45.4101C23.9199 45.4101 24.2199 45.7101 24.2199 46.0801C24.2199 46.4501 23.9199 46.7501 23.5599 46.7501C23.1899 46.7501 22.8899 46.4501 22.8899 46.0801ZM97.9499 45.5701C97.9499 45.2101 98.2499 44.9101 98.6199 44.9101C98.9899 44.9101 99.2799 45.2101 99.2799 45.5701C99.2799 45.9401 98.9899 46.2401 98.6199 46.2401C98.2499 46.2401 97.9499 45.9401 97.9499 45.5701ZM22.8899 42.0801C22.8899 41.7101 23.1899 41.4201 23.5599 41.4201C23.9199 41.4201 24.2199 41.7101 24.2199 42.0801C24.2199 42.4501 23.9199 42.7501 23.5599 42.7501C23.1899 42.7501 22.8899 42.4501 22.8899 42.0801ZM97.9499 41.5801C97.9499 41.2101 98.2499 40.9101 98.6199 40.9101C98.9899 40.9101 99.2799 41.2101 99.2799 41.5801C99.2799 41.9501 98.9899 42.2401 98.6199 42.2401C98.2499 42.2401 97.9499 41.9501 97.9499 41.5801ZM22.8899 38.0901C22.8899 37.7201 23.1899 37.4201 23.5599 37.4201C23.9199 37.4201 24.2199 37.7201 24.2199 38.0901C24.2199 38.4501 23.9199 38.7501 23.5599 38.7501C23.1899 38.7501 22.8899 38.4501 22.8899 38.0901ZM97.9499 37.5801C97.9499 37.2101 98.2499 36.9101 98.6199 36.9101C98.9899 36.9101 99.2799 37.2101 99.2799 37.5801C99.2799 37.9501 98.9899 38.2501 98.6199 38.2501C98.2499 38.2501 97.9499 37.9501 97.9499 37.5801ZM23.7799 34.7701C23.4299 34.6501 23.2399 34.2801 23.3499 33.9301C23.4699 33.5801 23.8399 33.3901 24.1899 33.5001C24.5399 33.6101 24.7299 33.9901 24.6199 34.3401C24.5299 34.6201 24.2699 34.8001 23.9899 34.8001C23.9199 34.8001 23.8499 34.7901 23.7799 34.7701ZM97.3999 33.9001C97.2599 33.5601 97.4299 33.1701 97.7799 33.0401C98.1199 32.9001 98.4999 33.0701 98.6399 33.4101C98.7699 33.7601 98.5999 34.1401 98.2599 34.2801C98.1799 34.3101 98.0999 34.3201 98.0199 34.3201C97.7499 34.3201 97.4999 34.1601 97.3999 33.9001ZM25.5699 31.2201C25.2999 30.9601 25.2999 30.5401 25.5599 30.2801C25.8099 30.0101 26.2299 30.0101 26.4999 30.2601C26.7599 30.5201 26.7699 30.9401 26.5099 31.2001C26.3799 31.3401 26.2099 31.4101 26.0299 31.4101C25.8699 31.4101 25.6999 31.3401 25.5699 31.2201ZM95.3299 30.8801C95.0599 30.6301 95.0399 30.2101 95.2899 29.9401C95.5399 29.6701 95.9599 29.6501 96.2299 29.9001C96.4999 30.1501 96.5199 30.5701 96.2699 30.8401C96.1399 30.9801 95.9599 31.0501 95.7799 31.0501C95.6199 31.0501 95.4599 31.0001 95.3299 30.8801ZM28.7199 28.8001C28.5399 28.4801 28.6499 28.0801 28.9699 27.8901C29.2899 27.7101 29.6999 27.8201 29.8799 28.1401C30.0599 28.4501 29.9499 28.8601 29.6399 29.0501C29.5299 29.1101 29.4199 29.1301 29.2999 29.1301C29.0699 29.1301 28.8499 29.0201 28.7199 28.8001ZM92.0999 28.7901C91.7799 28.6101 91.6699 28.2001 91.8599 27.8801C92.0399 27.5601 92.4499 27.4601 92.7699 27.6401C93.0899 27.8201 93.1899 28.2301 93.0099 28.5501C92.8899 28.7601 92.6599 28.8801 92.4299 28.8801C92.3199 28.8801 92.2099 28.8501 92.0999 28.7901ZM32.1899 26.8001C31.9999 26.4901 32.1099 26.0801 32.4299 25.8901C32.7499 25.7101 33.1599 25.8201 33.3399 26.1401C33.5299 26.4601 33.4199 26.8601 33.0999 27.0501C32.9899 27.1101 32.8799 27.1401 32.7599 27.1401C32.5299 27.1401 32.3099 27.0201 32.1899 26.8001ZM88.6399 26.7901C88.3199 26.6101 88.2099 26.2001 88.3899 25.8801C88.5799 25.5701 88.9899 25.4601 89.3099 25.6401C89.6199 25.8201 89.7299 26.2301 89.5499 26.5501C89.4299 26.7601 89.1999 26.8801 88.9699 26.8801C88.8599 26.8801 88.7399 26.8601 88.6399 26.7901ZM35.6499 24.8001C35.4599 24.4901 35.5699 24.0801 35.8899 23.8901C36.2099 23.7101 36.6199 23.8201 36.7999 24.1401C36.9899 24.4601 36.8799 24.8601 36.5599 25.0501C36.4499 25.1101 36.3399 25.1401 36.2299 25.1401C35.9999 25.1401 35.7699 25.0201 35.6499 24.8001ZM85.1799 24.8001C84.8599 24.6101 84.7499 24.2001 84.9299 23.8901C85.1199 23.5701 85.5199 23.4601 85.8399 23.6401C86.1599 23.8301 86.2699 24.2301 86.0899 24.5501C85.9599 24.7701 85.7399 24.8801 85.5099 24.8801C85.3999 24.8801 85.2799 24.8601 85.1799 24.8001ZM39.1099 22.8101C38.9299 22.4901 39.0399 22.0801 39.3499 21.9001C39.6699 21.7101 40.0799 21.8201 40.2699 22.1401C40.4499 22.4601 40.3399 22.8701 40.0199 23.0501C39.9199 23.1101 39.7999 23.1401 39.6899 23.1401C39.4599 23.1401 39.2299 23.0201 39.1099 22.8101ZM81.7099 22.8001C81.3999 22.6101 81.2899 22.2101 81.4699 21.8901C81.6499 21.5701 82.0599 21.4601 82.3799 21.6401C82.6999 21.8301 82.8099 22.2301 82.6199 22.5501C82.4999 22.7701 82.2799 22.8901 82.0499 22.8901C81.9299 22.8901 81.8199 22.8601 81.7099 22.8001ZM42.5699 20.8101C42.3899 20.4901 42.4999 20.0801 42.8199 19.9001C43.1299 19.7101 43.5399 19.8201 43.7299 20.1401C43.9099 20.4601 43.7999 20.8701 43.4799 21.0501C43.3799 21.1101 43.2599 21.1401 43.1499 21.1401C42.9199 21.1401 42.6999 21.0201 42.5699 20.8101ZM78.2499 20.8001C77.9299 20.6101 77.8199 20.2101 78.0099 19.8901C78.1899 19.5701 78.5999 19.4601 78.9199 19.6401C79.2399 19.8301 79.3499 20.2401 79.1599 20.5501C79.0399 20.7701 78.8199 20.8901 78.5899 20.8901C78.4699 20.8901 78.3599 20.8601 78.2499 20.8001ZM46.0299 18.8101C45.8499 18.4901 45.9599 18.0801 46.2799 17.9001C46.5999 17.7101 46.9999 17.8201 47.1899 18.1401C47.3699 18.4601 47.2599 18.8701 46.9499 19.0501C46.8399 19.1101 46.7299 19.1401 46.6099 19.1401C46.3799 19.1401 46.1599 19.0201 46.0299 18.8101ZM74.7899 18.8001C74.4699 18.6101 74.3599 18.2101 74.5499 17.8901C74.7299 17.5701 75.1399 17.4601 75.4599 17.6401C75.7799 17.8301 75.8899 18.2401 75.6999 18.5601C75.5799 18.7701 75.3499 18.8901 75.1199 18.8901C75.0099 18.8901 74.8899 18.8601 74.7899 18.8001ZM49.4999 16.8101C49.3099 16.4901 49.4199 16.0801 49.7399 15.9001C50.0599 15.7201 50.4699 15.8201 50.6499 16.1401C50.8399 16.4601 50.7299 16.8701 50.4099 17.0501C50.2999 17.1101 50.1899 17.1401 50.0699 17.1401C49.8399 17.1401 49.6199 17.0201 49.4999 16.8101ZM71.3299 16.8001C71.0099 16.6201 70.8999 16.2101 71.0799 15.8901C71.2699 15.5701 71.6799 15.4601 71.9999 15.6501C72.3099 15.8301 72.4199 16.2401 72.2399 16.5601C72.1199 16.7701 71.8899 16.8901 71.6599 16.8901C71.5499 16.8901 71.4299 16.8601 71.3299 16.8001ZM52.9599 14.8101C52.7799 14.4901 52.8799 14.0801 53.1999 13.9001C53.5199 13.7201 53.9299 13.8301 54.1099 14.1501C54.2999 14.4601 54.1899 14.8701 53.8699 15.0501C53.7599 15.1101 53.6499 15.1401 53.5399 15.1401C53.3099 15.1401 53.0799 15.0201 52.9599 14.8101ZM67.8699 14.8001C67.5499 14.6201 67.4399 14.2101 67.6199 13.8901C67.8099 13.5701 68.2099 13.4601 68.5299 13.6501C68.8499 13.8301 68.9599 14.2401 68.7799 14.5601C68.6499 14.7701 68.4299 14.8901 68.1999 14.8901C68.0899 14.8901 67.9699 14.8601 67.8699 14.8001ZM56.4099 12.7901C56.2399 12.4701 56.3599 12.0701 56.6899 11.9001C57.0199 11.7201 57.4199 11.8501 57.5899 12.1701C57.7599 12.5001 57.6399 12.9001 57.3099 13.0701C57.2099 13.1301 57.1099 13.1501 56.9999 13.1501C56.7599 13.1501 56.5299 13.0201 56.4099 12.7901ZM64.4399 12.8701C64.1099 12.7201 63.9599 12.3201 64.1099 11.9901C64.2699 11.6501 64.6599 11.5001 64.9899 11.6601C65.3299 11.8101 65.4799 12.2001 65.3199 12.5401C65.2099 12.7801 64.9699 12.9301 64.7199 12.9301C64.6299 12.9301 64.5299 12.9101 64.4399 12.8701ZM60.1699 11.5001C60.1599 11.1301 60.4499 10.8201 60.8199 10.8101C61.1799 10.8101 61.4899 11.0901 61.4999 11.4601C61.5099 11.8301 61.2199 12.1301 60.8499 12.1401H60.8399C60.4799 12.1401 60.1799 11.8601 60.1699 11.5001Z" fill="#130C49"/>
<path d="M28.3301 64.23V42.22C28.3301 37.46 30.8701 33.06 34.9901 30.68L54.0501 19.68C58.1701 17.3 63.2501 17.3 67.3801 19.68L86.4401 30.68C90.5601 33.06 93.1001 37.46 93.1001 42.22V64.23C93.1001 68.99 90.5601 73.39 86.4401 75.77L67.3801 86.77C63.2601 89.15 58.1801 89.15 54.0501 86.77L34.9901 75.77C30.8701 73.39 28.3301 68.99 28.3301 64.23Z" fill="#1CB598"/>
<path d="M60.72 88.89C58.36 88.89 56 88.28 53.89 87.07L34.83 76.07C30.62 73.64 28 69.1 28 64.24V42.23C28 37.36 30.62 32.83 34.83 30.4L53.89 19.4C58.1 16.97 63.34 16.97 67.55 19.4L86.61 30.4C90.82 32.83 93.44 37.37 93.44 42.23V64.24C93.44 69.11 90.82 73.64 86.61 76.07L67.55 87.07C65.44 88.29 63.08 88.89 60.72 88.89ZM60.72 18.23C58.47 18.23 56.23 18.81 54.23 19.96L35.17 30.96C31.16 33.27 28.68 37.58 28.68 42.21V64.22C28.68 68.85 31.17 73.16 35.17 75.47L54.23 86.47C58.24 88.78 63.21 88.78 67.22 86.47L86.28 75.47C90.29 73.16 92.77 68.85 92.77 64.22V42.21C92.77 37.58 90.28 33.27 86.28 30.96L67.22 19.96C65.22 18.8 62.97 18.23 60.73 18.23H60.72Z" fill="white"/>
<path d="M53.9199 61.0601C53.9199 65.6101 57.6099 69.2901 62.1499 69.2901C66.6899 69.2901 70.3799 65.6001 70.3799 61.0601" fill="white"/>
<path d="M54.62 50.9699C54.25 50.9699 53.89 50.8199 53.63 50.5599C53.37 50.2899 53.22 49.9299 53.22 49.5599C53.22 49.4699 53.23 49.3799 53.24 49.2899C53.26 49.1999 53.29 49.1099 53.32 49.0199C53.36 48.9399 53.4 48.8599 53.45 48.7799C53.5 48.6999 53.56 48.6299 53.63 48.5699C54.15 48.0499 55.09 48.0499 55.61 48.5699C55.88 48.8299 56.03 49.1899 56.03 49.5599C56.03 49.9299 55.88 50.2899 55.61 50.5599C55.35 50.8199 54.99 50.9699 54.62 50.9699Z" fill="#130C49"/>
<path d="M51.34 48.89C50.61 48.63 50.24 47.82 50.5 47.09C50.77 46.36 51.57 45.99 52.3 46.25C53.03 46.52 53.41 47.32 53.14 48.05C52.94 48.62 52.4 48.98 51.82 48.98C51.66 48.98 51.5 48.95 51.34 48.89ZM47.03 47.65C46.87 46.89 47.35 46.14 48.11 45.97C48.86 45.81 49.61 46.29 49.78 47.04C49.94 47.8 49.47 48.55 48.71 48.72C48.61 48.74 48.51 48.75 48.41 48.75C47.76 48.75 47.18 48.3 47.03 47.65Z" fill="#130C49"/>
<path d="M45.39 50.4C45.03 50.4 44.66 50.25 44.4 49.99C44.14 49.73 43.99 49.37 43.99 49C43.99 48.63 44.14 48.26 44.4 48C44.73 47.68 45.21 47.53 45.67 47.62C45.76 47.64 45.85 47.66 45.93 47.7C46.02 47.73 46.1 47.78 46.17 47.83C46.25 47.88 46.32 47.94 46.39 48C46.65 48.27 46.8 48.63 46.8 49C46.8 49.09 46.79 49.18 46.77 49.27C46.75 49.36 46.73 49.45 46.69 49.53C46.66 49.62 46.61 49.7 46.56 49.78C46.51 49.85 46.45 49.93 46.39 49.99C46.32 50.06 46.25 50.11 46.17 50.16C46.1 50.22 46.02 50.26 45.93 50.29C45.85 50.33 45.76 50.36 45.67 50.37C45.58 50.39 45.49 50.4 45.39 50.4Z" fill="#130C49"/>
<path d="M79.86 51.8501C79.5 51.8501 79.13 51.7001 78.87 51.4401C78.61 51.1801 78.46 50.8201 78.46 50.4401C78.46 50.0601 78.61 49.7101 78.87 49.4501C79.4 48.9301 80.34 48.9301 80.86 49.4501C81.12 49.7101 81.27 50.0701 81.27 50.4401C81.27 50.8101 81.12 51.1801 80.86 51.4401C80.6 51.7001 80.23 51.8501 79.86 51.8501Z" fill="#130C49"/>
<path d="M76.5801 49.78C75.8601 49.51 75.4801 48.7 75.7401 47.97C76.0101 47.25 76.8201 46.87 77.5401 47.13C78.2701 47.4 78.6501 48.2 78.3901 48.93C78.1801 49.5 77.6401 49.86 77.0601 49.86C76.9001 49.86 76.7401 49.83 76.5801 49.78ZM72.2801 48.53C72.1101 47.77 72.5901 47.02 73.3501 46.86C74.1101 46.69 74.8601 47.17 75.0201 47.93C75.1901 48.68 74.7101 49.43 73.9501 49.6C73.8501 49.62 73.7501 49.63 73.6501 49.63C73.0001 49.63 72.4201 49.19 72.2801 48.53Z" fill="#130C49"/>
<path d="M70.64 51.2901C70.27 51.2901 69.91 51.1401 69.64 50.8701C69.38 50.6101 69.23 50.2501 69.23 49.8801C69.23 49.5101 69.38 49.1501 69.64 48.8901C70.17 48.3601 71.11 48.3601 71.63 48.8901C71.89 49.1501 72.04 49.5101 72.04 49.8801C72.04 50.2501 71.89 50.6101 71.63 50.8701C71.37 51.1401 71.01 51.2901 70.64 51.2901Z" fill="#130C49"/>
</g>
<defs>
<clipPath id="clip0_8_2111">
<rect width="99.28" height="96.09" fill="white"/>
</clipPath>
</defs>
</svg>
